<svg data-v-fde0c5aa="" xmlns="http://www.w3.org/2000/svg" viewBox="0 0 300 300" class="iconAbove"><!----><defs data-v-fde0c5aa=""><!----></defs><rect data-v-fde0c5aa="" fill="#FFFFFF" x="0" y="0" width="300px" height="300px" class="logo-background-square"></rect><defs data-v-fde0c5aa=""><!----></defs><g data-v-fde0c5aa="" id="7aa0074f-393e-4b76-9f59-86a8591ee31c" fill="#0C3D33" transform="matrix(2.0988051891326904,0,0,2.0988051891326904,20.314820794418036,174.21633810497653)"><path d="M-0.15 4.67L-0.15 4.67L-0.15 8.75L-0.15 8.75Q-0.15 10.65 3.21 10.65L3.21 10.65L3.21 10.65Q6.56 10.65 6.56 8.75L6.56 8.75L6.56 8.17L4.38 8.17L4.38 8.46L4.38 8.46Q4.38 9.19 3.21 9.19L3.21 9.19L3.21 9.19Q2.04 9.19 2.04 8.46L2.04 8.46L2.04 7.44L6.56 7.44L6.56 4.67L6.56 4.67Q6.56 2.77 3.21 2.77L3.21 2.77L3.21 2.77Q-0.15 2.77-0.15 4.67ZM4.38 5.98L2.04 5.98L2.04 4.96L2.04 4.96Q2.04 4.23 3.21 4.23L3.21 4.23L3.21 4.23Q4.38 4.23 4.38 4.96L4.38 4.96L4.38 5.98ZM10.06 5.10L10.06 5.10L10.06 4.96L10.06 4.96Q10.06 4.23 11.08 4.23L11.08 4.23L11.08 4.23Q12.10 4.23 12.10 4.96L12.10 4.96L12.10 5.54L14.29 5.54L14.29 4.67L14.29 4.67Q14.29 2.77 11.08 2.77L11.08 2.77L11.08 2.77Q7.88 2.77 7.88 4.67L7.88 4.67L7.88 5.40L7.88 5.40Q7.88 7.17 11.08 7.50L11.08 7.50L11.08 7.50Q12.25 7.66 12.25 8.31L12.25 8.31L12.25 8.46L12.25 8.46Q12.25 9.19 11.08 9.19L11.08 9.19L11.08 9.19Q9.92 9.19 9.92 8.46L9.92 8.46L9.92 7.88L7.73 7.88L7.73 8.75L7.73 8.75Q7.73 10.65 11.08 10.65L11.08 10.65L11.08 10.65Q14.44 10.65 14.44 8.75L14.44 8.75L14.44 7.73L14.44 7.73Q14.44 6.11 11.08 5.83L11.08 5.83L11.08 5.83Q10.06 5.68 10.06 5.10ZM16.42 0.58L18.61 0.58L18.61 2.92L19.48 2.92L19.48 4.38L18.61 4.38L18.61 8.17L18.61 8.17Q18.61 9.04 19.48 9.04L19.48 9.04L19.48 10.50L18.46 10.50L18.46 10.50Q16.42 10.50 16.42 8.75L16.42 8.75L16.42 4.38L15.60 4.38L15.60 2.92L16.42 2.92L16.42 0.58ZM22.84 2.92L20.65 2.92L20.65 10.50L22.84 10.50L22.84 2.92ZM22.95 0.60L22.95 0.60L22.95 0.60Q22.95-0.41 21.74-0.41L21.74-0.41L21.74-0.41Q20.53-0.41 20.53 0.60L20.53 0.60L20.53 0.60Q20.53 1.60 21.74 1.60L21.74 1.60L21.74 1.60Q22.95 1.60 22.95 0.60ZM24.00 2.92L24.00 10.50L26.19 10.50L26.19 5.10L26.19 5.10Q26.19 4.23 27.14 4.23L27.14 4.23L27.14 4.23Q28.09 4.23 28.09 5.10L28.09 5.10L28.09 10.50L30.22 10.50L30.22 5.10L30.22 5.10Q30.22 4.23 31.15 4.23L31.15 4.23L31.15 4.23Q32.08 4.23 32.08 5.10L32.08 5.10L32.08 10.50L34.27 10.50L34.27 4.67L34.27 4.67Q34.27 2.77 32.31 2.77L32.31 2.77L32.31 2.77Q30.34 2.77 29.93 3.70L29.93 3.70L29.93 3.70Q29.60 2.77 27.90 2.77L27.90 2.77L27.90 2.77Q26.19 2.77 26.19 3.94L26.19 3.94L26.19 2.92L24.00 2.92ZM39.38 9.71L39.38 9.71Q39.38 10.65 38.15 10.65L38.15 10.65L38.15 10.65Q35.44 10.65 35.44 8.75L35.44 8.75L35.44 7.76L35.44 7.76Q35.44 5.80 38.50 5.80L38.50 5.80L38.50 5.80Q39.38 5.80 39.38 5.25L39.38 5.25L39.38 4.96L39.38 4.96Q39.38 4.23 38.50 4.23L38.50 4.23L38.50 4.23Q37.83 4.23 37.83 4.96L37.83 4.96L37.83 5.25L35.64 5.25L35.64 4.67L35.64 4.67Q35.64 2.77 38.50 2.77L38.50 2.77L38.50 2.77Q41.56 2.77 41.56 4.67L41.56 4.67L41.56 9.48L41.56 9.48Q41.56 10.50 42.15 10.50L42.15 10.50L39.96 10.50L39.96 10.50Q39.38 10.50 39.38 9.71L39.38 9.71ZM39.38 6.82L39.38 6.82Q39.38 7.26 38.50 7.26L38.50 7.26L38.50 7.26Q37.63 7.26 37.63 8.05L37.63 8.05L37.63 8.46L37.63 8.46Q37.63 9.19 38.50 9.19L38.50 9.19L38.50 9.19Q39.38 9.19 39.38 8.10L39.38 8.10L39.38 6.82ZM43.55 0.58L45.73 0.58L45.73 2.92L46.61 2.92L46.61 4.38L45.73 4.38L45.73 8.17L45.73 8.17Q45.73 9.04 46.61 9.04L46.61 9.04L46.61 10.50L45.59 10.50L45.59 10.50Q43.55 10.50 43.55 8.75L43.55 8.75L43.55 4.38L42.73 4.38L42.73 2.92L43.55 2.92L43.55 0.58ZM47.77 4.67L47.77 4.67L47.77 8.75L47.77 8.75Q47.77 10.65 51.13 10.65L51.13 10.65L51.13 10.65Q54.48 10.65 54.48 8.75L54.48 8.75L54.48 8.17L52.30 8.17L52.30 8.46L52.30 8.46Q52.30 9.19 51.13 9.19L51.13 9.19L51.13 9.19Q49.96 9.19 49.96 8.46L49.96 8.46L49.96 7.44L54.48 7.44L54.48 4.67L54.48 4.67Q54.48 2.77 51.13 2.77L51.13 2.77L51.13 2.77Q47.77 2.77 47.77 4.67ZM52.30 5.98L49.96 5.98L49.96 4.96L49.96 4.96Q49.96 4.23 51.13 4.23L51.13 4.23L51.13 4.23Q52.30 4.23 52.30 4.96L52.30 4.96L52.30 5.98ZM63.67 2.92L65.86 2.92L65.86 11.67L65.86 11.67Q65.86 13.27 62.50 13.27L62.50 13.27L62.50 13.27Q59.15 13.27 59.15 11.67L59.15 11.67L59.15 11.23L61.34 11.23L61.34 11.38L61.34 11.38Q61.34 11.81 62.50 11.81L62.50 11.81L62.50 11.81Q63.67 11.81 63.67 11.38L63.67 11.38L63.67 9.48L63.67 9.48Q63.67 10.65 61.41 10.65L61.41 10.65L61.41 10.65Q59.15 10.65 59.15 8.75L59.15 8.75L59.15 4.67L59.15 4.67Q59.15 2.77 61.41 2.77L61.41 2.77L61.41 2.77Q63.67 2.77 63.67 3.94L63.67 3.94L63.67 2.92ZM63.67 8.46L63.67 8.46L63.67 4.96L63.67 4.96Q63.67 4.23 62.50 4.23L62.50 4.23L62.50 4.23Q61.34 4.23 61.34 4.96L61.34 4.96L61.34 8.46L61.34 8.46Q61.34 9.19 62.50 9.19L62.50 9.19L62.50 9.19Q63.67 9.19 63.67 8.46ZM67.03 4.67L67.03 4.67L67.03 8.75L67.03 8.75Q67.03 10.65 70.38 10.65L70.38 10.65L70.38 10.65Q73.73 10.65 73.73 8.75L73.73 8.75L73.73 8.17L71.55 8.17L71.55 8.46L71.55 8.46Q71.55 9.19 70.38 9.19L70.38 9.19L70.38 9.19Q69.21 9.19 69.21 8.46L69.21 8.46L69.21 7.44L73.73 7.44L73.73 4.67L73.73 4.67Q73.73 2.77 70.38 2.77L70.38 2.77L70.38 2.77Q67.03 2.77 67.03 4.67ZM71.55 5.98L69.21 5.98L69.21 4.96L69.21 4.96Q69.21 4.23 70.38 4.23L70.38 4.23L70.38 4.23Q71.55 4.23 71.55 4.96L71.55 4.96L71.55 5.98ZM74.90 2.92L74.90 10.50L77.09 10.50L77.09 5.10L77.09 5.10Q77.09 4.23 78.25 4.23L78.25 4.23L78.25 4.23Q79.42 4.23 79.42 5.10L79.42 5.10L79.42 10.50L81.61 10.50L81.61 4.67L81.61 4.67Q81.61 2.77 79.35 2.77L79.35 2.77L79.35 2.77Q77.09 2.77 77.09 3.94L77.09 3.94L77.09 2.92L74.90 2.92ZM82.78 4.67L82.78 4.67L82.78 8.75L82.78 8.75Q82.78 10.65 86.13 10.65L86.13 10.65L86.13 10.65Q89.48 10.65 89.48 8.75L89.48 8.75L89.48 8.17L87.30 8.17L87.30 8.46L87.30 8.46Q87.30 9.19 86.13 9.19L86.13 9.19L86.13 9.19Q84.96 9.19 84.96 8.46L84.96 8.46L84.96 7.44L89.48 7.44L89.48 4.67L89.48 4.67Q89.48 2.77 86.13 2.77L86.13 2.77L86.13 2.77Q82.78 2.77 82.78 4.67ZM87.30 5.98L84.96 5.98L84.96 4.96L84.96 4.96Q84.96 4.23 86.13 4.23L86.13 4.23L86.13 4.23Q87.30 4.23 87.30 4.96L87.30 4.96L87.30 5.98ZM90.65 2.92L90.65 10.50L92.84 10.50L92.84 4.96L92.84 4.96Q92.84 4.23 93.61 4.23L93.61 4.23L93.61 4.23Q94.38 4.23 94.38 4.96L94.38 4.96L94.38 5.54L96.57 5.54L96.57 4.67L96.57 4.67Q96.57 2.77 94.70 2.77L94.70 2.77L94.70 2.77Q92.84 2.77 92.84 3.94L92.84 3.94L92.84 2.92L90.65 2.92ZM101.53 9.71L101.53 9.71Q101.53 10.65 100.30 10.65L100.30 10.65L100.30 10.65Q97.59 10.65 97.59 8.75L97.59 8.75L97.59 7.76L97.59 7.76Q97.59 5.80 100.65 5.80L100.65 5.80L100.65 5.80Q101.53 5.80 101.53 5.25L101.53 5.25L101.53 4.96L101.53 4.96Q101.53 4.23 100.65 4.23L100.65 4.23L100.65 4.23Q99.98 4.23 99.98 4.96L99.98 4.96L99.98 5.25L97.80 5.25L97.80 4.67L97.80 4.67Q97.80 2.77 100.65 2.77L100.65 2.77L100.65 2.77Q103.72 2.77 103.72 4.67L103.72 4.67L103.72 9.48L103.72 9.48Q103.72 10.50 104.30 10.50L104.30 10.50L102.11 10.50L102.11 10.50Q101.53 10.50 101.53 9.71L101.53 9.71ZM101.53 6.82L101.53 6.82Q101.53 7.26 100.65 7.26L100.65 7.26L100.65 7.26Q99.78 7.26 99.78 8.05L99.78 8.05L99.78 8.46L99.78 8.46Q99.78 9.19 100.65 9.19L100.65 9.19L100.65 9.19Q101.53 9.19 101.53 8.10L101.53 8.10L101.53 6.82ZM105.70 0.58L107.89 0.58L107.89 2.92L108.76 2.92L108.76 4.38L107.89 4.38L107.89 8.17L107.89 8.17Q107.89 9.04 108.76 9.04L108.76 9.04L108.76 10.50L107.74 10.50L107.74 10.50Q105.70 10.50 105.70 8.75L105.70 8.75L105.70 4.38L104.88 4.38L104.88 2.92L105.70 2.92L105.70 0.58ZM114.45 4.96L114.45 8.46L114.45 8.46Q114.45 9.19 113.28 9.19L113.28 9.19L113.28 9.19Q112.12 9.19 112.12 8.46L112.12 8.46L112.12 4.96L112.12 4.96Q112.12 4.23 113.28 4.23L113.28 4.23L113.28 4.23Q114.45 4.23 114.45 4.96L114.45 4.96ZM116.64 8.75L116.64 4.67L116.64 4.67Q116.64 2.77 113.28 2.77L113.28 2.77L113.28 2.77Q109.93 2.77 109.93 4.67L109.93 4.67L109.93 8.75L109.93 8.75Q109.93 10.65 113.28 10.65L113.28 10.65L113.28 10.65Q116.64 10.65 116.64 8.75L116.64 8.75ZM117.80 2.92L117.80 10.50L119.99 10.50L119.99 4.96L119.99 4.96Q119.99 4.23 120.76 4.23L120.76 4.23L120.76 4.23Q121.54 4.23 121.54 4.96L121.54 4.96L121.54 5.54L123.73 5.54L123.73 4.67L123.73 4.67Q123.73 2.77 121.86 2.77L121.86 2.77L121.86 2.77Q119.99 2.77 119.99 3.94L119.99 3.94L119.99 2.92L117.80 2.92Z"></path></g><defs data-v-fde0c5aa=""><!----></defs><g data-v-fde0c5aa="" id="5fb25e12-24d0-4517-945d-15b7977a5b5a" stroke="none" fill="#288642" transform="matrix(0.595038652420044,0,0,0.595038652420044,120.24792211468514,96.89149517155406)"><path d="M92.639 35.129L52.219 2.456a3.175 3.175 0 0 0-2.406-.68c-.726-.005-1.446.206-2.031.68L7.36 35.129c-.781.632-1.22 1.595-1.185 2.599s.541 1.934 1.365 2.508l5.297 3.697v31.229c0 1.131.598 2.179 1.573 2.753l33.74 19.893c.009.005.02.008.03.013.167.096.349.159.531.224.083.029.16.076.245.099.236.062.481.09.727.096.03.001.06.013.09.013h.003c.052 0 .104-.018.156-.02.222-.012.444-.03.661-.088.077-.02.146-.064.223-.091.184-.063.371-.124.544-.223.007-.004.012-.011.02-.015.005-.004.012-.004.018-.008l33.737-19.893a3.193 3.193 0 0 0 1.573-2.753V44.25l5.752-4.015a3.194 3.194 0 0 0 .179-5.106zM52.986 56.553V11.296l32.328 26.132-32.328 19.125zm-6.391-44.919v44.938L14.686 37.428l31.909-25.794zm-.018 77.827L19.23 73.337V47.859l27.347 16.123v25.479zm33.737-16.124L52.969 89.461V63.982l27.346-16.123v25.478z"></path></g><!----></svg>